<?xml version="1.0" encoding="UTF-8"?> <svg xmlns="http://www.w3.org/2000/svg" width="150" height="48.586" viewBox="0 0 150 48.586"><g transform="translate(-411.19 -305.04)"><g transform="translate(491.893 346.056)"><path d="M564.03,381.12c1.848,0,2.8.805,2.8,2.107v.513c0,1.291-1,1.967-2.783,1.967H561.5v2.8h-.946V381.12Zm1.859,2.188c0-.805-.6-1.345-1.9-1.345H561.5v2.966h2.491c1.291,0,1.9-.411,1.9-1.27v-.346Z" transform="translate(-560.55 -381.028)" fill="#404040"></path><path d="M579.387,380.96l3.247,7.478h-1.043l-.956-2.172H577.08l-.956,2.172H575.07l3.291-7.478h1.021Zm1.021,4.523L578.874,382l-1.567,3.48h3.1Z" transform="translate(-567.224 -380.955)" fill="#404040"></path><path d="M598.374,385.232l1.945,3.28h-1.043l-1.815-3.074h-2.685v3.074h-.946V381.12h3.8c1.524,0,2.523.751,2.523,2.01v.259c0,1.021-.74,1.632-1.783,1.837Zm-3.6-.589h2.869c.783-.022,1.567-.411,1.567-1.194v-.27c0-.729-.654-1.216-1.643-1.216h-2.794v2.685Z" transform="translate(-575.848 -381.028)" fill="#404040"></path><path d="M609.18,381.958v-.837H616.2v.837h-3.118v6.554h-.946v-6.554Z" transform="translate(-582.904 -381.028)" fill="#404040"></path><path d="M632.628,381.12h.892v7.392h-.967l-5.031-6.127v6.127h-.9V381.12h.978l5.03,6.106Z" transform="translate(-590.921 -381.028)" fill="#404040"></path><path d="M646.186,385.15v2.545h4.652v.827h-5.6V381.13h5.338v.837h-4.393v2.377H650v.805h-3.815Z" transform="translate(-599.48 -381.033)" fill="#404040"></path><path d="M665.324,385.232l1.945,3.28h-1.043l-1.816-3.074h-2.685v3.074h-.946V381.12h3.8c1.524,0,2.523.751,2.523,2.01v.259c0,1.021-.74,1.632-1.783,1.837Zm-3.6-.589h2.869c.783-.022,1.567-.411,1.567-1.194v-.27c0-.729-.654-1.216-1.643-1.216h-2.793v2.685Z" transform="translate(-606.623 -381.028)" fill="#404040"></path><path d="M683.344,386.445c0,1.378-1.313,2.075-3.02,2.075a4.895,4.895,0,0,1-3.393-1.227l.443-.665a4.431,4.431,0,0,0,2.956,1.075c1.216,0,2.032-.411,2.032-1.237,0-.751-.367-1.119-2.28-1.378-2.021-.281-2.912-.816-2.923-2.064-.011-1.367,1.356-2.075,3-2.075a4.914,4.914,0,0,1,3.107.989l-.432.686a4.5,4.5,0,0,0-2.675-.848c-1.162,0-2.032.454-2.032,1.237s.632,1.1,2.345,1.313c1.988.249,2.869.816,2.869,2.118Z" transform="translate(-614.047 -380.95)" fill="#404040"></path></g><g transform="translate(411.19 305.04)"><path d="M434.991,326.113l8.8,14.443h-8.44l-7.629-12.762h-8.8v12.762H411.19V305.98H429.5c7.932,0,13.168,3.253,13.168,10.018v1.167c0,4.782-3.1,7.732-7.678,8.948Zm-16.064-4.22H429.1c2.95-.049,5.8-1.324,5.8-4.117v-1.27c0-2.7-2.388-4.171-5.9-4.171H418.927Z" transform="translate(-411.19 -305.472)" fill="#404040"></path><path d="M516.826,317.343v10.574c0,8.391-6.916,12.714-16.577,12.714h-.762c-9.866,0-16.577-4.22-16.577-12.714V317.343c0-7.727,6.965-12.3,16.529-12.3h.816c9.256,0,16.577,4.679,16.577,12.3Zm-7.781.913c0-4.528-3.761-6.862-8.8-6.862h-.816c-5.133,0-8.748,2.545-8.748,6.814v8.845c0,4.982,3.4,7.273,8.8,7.273h.762c5.392,0,8.8-2.286,8.8-7.273v-8.8Z" transform="translate(-444.158 -305.04)" fill="#404040"></path><path d="M583.3,305.98l-10.326,34.581h7.683l11.082-34.581Zm-28.837,0,10.861,34.581h7.651l-10.12-34.581Z" transform="translate(-477.047 -305.472)" fill="#268dd2"></path><path d="M628.25,340.551l10.326-34.581h-7.683L619.81,340.551Zm28.837,0L646.227,305.97h-7.651l10.12,34.581Z" transform="translate(-507.087 -305.468)" fill="#e85325"></path><rect width="8.91" height="6.873" transform="translate(130.456 17.793)" fill="#e85325"></rect></g></g></svg> 